<svg width="80" height="80" viewBox="0 0 80 80" fill="none" xmlns="http://www.w3.org/2000/svg">
<g clip-path="url(#clip0_340_751)">
<path d="M60.2009 62.1478H17.4114C17.1342 62.1479 16.8682 62.0378 16.6721 61.8418C16.476 61.6458 16.3658 61.38 16.3657 61.1027V39.328C16.3658 39.0507 16.476 38.7848 16.6721 38.5888C16.8682 38.3929 17.1342 38.2828 17.4114 38.2828H60.2009C60.4781 38.2828 60.744 38.3929 60.9401 38.5889C61.1362 38.7849 61.2465 39.0507 61.2466 39.328V61.1027C61.2465 61.38 61.1362 61.6458 60.9401 61.8418C60.744 62.0378 60.4781 62.1479 60.2009 62.1478V62.1478ZM18.4559 60.0576H59.1548V40.373H18.4559V60.0576Z" fill="#232121"/>
<path d="M17.6984 37.0802C17.4705 37.0798 17.249 37.0051 17.0675 36.8674C16.886 36.7298 16.7543 36.5366 16.6924 36.3173L14.1694 27.35C14.0945 27.0832 14.1286 26.7975 14.2642 26.5558C14.3999 26.3141 14.626 26.1361 14.8928 26.0611L56.7934 14.272C56.9255 14.2341 57.0639 14.2228 57.2004 14.2386C57.337 14.2545 57.469 14.2973 57.5889 14.3645C57.7089 14.4317 57.8143 14.522 57.8991 14.6302C57.9839 14.7384 58.0464 14.8623 58.0831 14.9948L60.6065 23.9632C60.6438 24.0953 60.6546 24.2335 60.6384 24.3698C60.6221 24.5061 60.5792 24.6379 60.512 24.7576C60.4449 24.8773 60.3547 24.9826 60.2468 25.0674C60.1389 25.1523 60.0154 25.215 59.8832 25.2521L17.9826 37.0398C17.8903 37.0666 17.7946 37.0803 17.6984 37.0802V37.0802ZM16.4657 27.7892L18.4224 34.7449L58.3097 23.5236L56.3527 16.5669L16.4657 27.7892Z" fill="#232121"/>
<path d="M40.0006 80.0002C32.0892 80.0002 24.3554 77.6541 17.7773 73.2588C11.1993 68.8634 6.07229 62.6161 3.04477 55.3069C0.0172578 47.9977 -0.774821 39.9548 0.768699 32.1955C2.31222 24.4361 6.12201 17.3087 11.7163 11.7145C17.3106 6.12041 24.4381 2.31081 32.1975 0.767505C39.957 -0.775799 47.9998 0.0165035 55.3089 3.04422C62.618 6.07194 68.8652 11.1991 73.2604 17.7773C77.6555 24.3555 80.0013 32.0893 80.0011 40.0007C79.9889 50.6057 75.7706 60.7727 68.2717 68.2715C60.7727 75.7702 50.6055 79.9882 40.0006 80.0002V80.0002ZM40.0006 2.09029C32.5027 2.09018 25.1732 4.31345 18.9389 8.47895C12.7046 12.6444 7.8455 18.5651 4.97609 25.4922C2.10668 32.4192 1.35582 40.0416 2.81848 47.3955C4.28113 54.7493 7.8916 61.5042 13.1933 66.8061C18.495 72.108 25.2499 75.7186 32.6036 77.1815C39.9574 78.6444 47.5798 77.8937 54.507 75.0245C61.4341 72.1553 67.3549 67.2964 71.5206 61.0622C75.6863 54.828 77.9098 47.4986 77.9099 40.0007C77.8987 29.9499 73.9011 20.3139 66.7942 13.2068C59.6873 6.09964 50.0514 2.10179 40.0006 2.09029V2.09029Z" fill="#232121"/>
</g>
<defs>
<clipPath id="clip0_340_751">
<rect width="80.0011" height="80" fill="white"/>
</clipPath>
</defs>
</svg>
