<svg width="80" height="80" viewBox="0 0 80 80" fill="none" xmlns="http://www.w3.org/2000/svg">
<g clip-path="url(#clip0_340_744)">
<path d="M39.6943 40.8811C39.5479 40.8811 39.4032 40.8503 39.2695 40.7907L16.4825 30.6627C16.2977 30.5805 16.1407 30.4465 16.0305 30.2769C15.9203 30.1073 15.8617 29.9093 15.8617 29.7071V20.8458C15.8617 20.6344 15.9257 20.428 16.0454 20.2538C16.1651 20.0796 16.3348 19.9457 16.5321 19.8699L39.5722 11.0083C39.8163 10.9151 40.0864 10.9161 40.3299 11.011L62.8642 19.8726C63.0597 19.9495 63.2275 20.0835 63.3457 20.2571C63.464 20.4306 63.5273 20.6358 63.5274 20.8458V30.2141C63.5274 30.4197 63.4668 30.6207 63.3532 30.792C63.2396 30.9633 63.078 31.0973 62.8886 31.1772L40.1011 40.7986C39.9724 40.8531 39.8341 40.8811 39.6943 40.8811V40.8811ZM17.9529 29.0279L39.7049 38.6957L61.4361 29.5209V21.558L39.9431 13.1059L17.9529 21.5638V29.0279Z" fill="#232121"/>
<path d="M39.9448 31.5107C39.8065 31.5106 39.6696 31.4831 39.5421 31.4298L16.5048 21.8106C16.251 21.7024 16.0502 21.4983 15.9463 21.2427C15.8424 20.9871 15.8436 20.7008 15.9499 20.4462C16.0562 20.1916 16.2588 19.9893 16.5135 19.8834C16.7683 19.7775 17.0546 19.7767 17.31 19.881L39.9406 29.3301L62.0714 19.8841C62.1976 19.8302 62.3333 19.8017 62.4706 19.8002C62.6079 19.7988 62.7441 19.8243 62.8716 19.8755C62.999 19.9267 63.115 20.0025 63.2132 20.0985C63.3113 20.1945 63.3896 20.309 63.4435 20.4352C63.4974 20.5615 63.5259 20.6972 63.5274 20.8345C63.5288 20.9718 63.5033 21.108 63.4521 21.2354C63.4009 21.3629 63.3251 21.4789 63.2291 21.5771C63.1331 21.6752 63.0186 21.7535 62.8924 21.8074L40.3559 31.4267C40.2259 31.4822 40.0861 31.5107 39.9448 31.5107V31.5107Z" fill="#232121"/>
<path d="M39.9447 40.881C39.8074 40.881 39.6714 40.854 39.5445 40.8015C39.4177 40.7489 39.3024 40.6719 39.2053 40.5748C39.1082 40.4777 39.0312 40.3624 38.9786 40.2355C38.9261 40.1087 38.899 39.9727 38.899 39.8354V30.465C38.9019 30.1895 39.0133 29.9263 39.2091 29.7325C39.4049 29.5387 39.6692 29.4301 39.9447 29.4301C40.2201 29.4301 40.4845 29.5387 40.6802 29.7325C40.876 29.9263 40.9874 30.1895 40.9903 30.465V39.8354C40.9903 39.9727 40.9633 40.1086 40.9107 40.2355C40.8582 40.3624 40.7812 40.4776 40.6841 40.5747C40.587 40.6718 40.4717 40.7489 40.3449 40.8014C40.218 40.854 40.082 40.881 39.9447 40.881Z" fill="#232121"/>
<path d="M9.81469 64.4273C9.60784 64.4274 9.40559 64.3662 9.23357 64.2513C9.06154 64.1365 8.92747 63.9731 8.84832 63.782C8.76918 63.5909 8.74853 63.3806 8.78898 63.1778C8.82943 62.9749 8.92917 62.7886 9.07557 62.6425L19.6844 52.0337C20.4301 51.2844 21.3169 50.6903 22.2937 50.286C23.2704 49.8817 24.3177 49.6751 25.3748 49.6782H48.8063C49.3776 49.6753 49.9438 49.7853 50.4724 50.0019C51.0011 50.2185 51.4817 50.5375 51.8867 50.9404C52.2917 51.3434 52.613 51.8223 52.8323 52.3499C53.0516 52.8774 53.1645 53.4431 53.1645 54.0144C53.1645 54.5856 53.0516 55.1513 52.8323 55.6788C52.613 56.2064 52.2917 56.6854 51.8867 57.0883C51.4817 57.4912 51.0011 57.8102 50.4724 58.0268C49.9438 58.2434 49.3776 58.3534 48.8063 58.3506H32.6022C32.464 58.352 32.327 58.326 32.1989 58.2741C32.0709 58.2222 31.9544 58.1455 31.8562 58.0483C31.758 57.9511 31.6801 57.8354 31.6269 57.7079C31.5737 57.5804 31.5463 57.4436 31.5463 57.3055C31.5463 57.1673 31.5737 57.0306 31.6269 56.9031C31.6801 56.7756 31.758 56.6599 31.8562 56.5627C31.9544 56.4655 32.0709 56.3887 32.1989 56.3369C32.327 56.285 32.464 56.259 32.6022 56.2604H48.8063C49.1026 56.2625 49.3964 56.206 49.6707 56.094C49.945 55.9821 50.1945 55.817 50.4047 55.6082C50.615 55.3994 50.7819 55.1511 50.8957 54.8776C51.0096 54.604 51.0682 54.3107 51.0682 54.0144C51.0682 53.7181 51.0096 53.4247 50.8957 53.1512C50.7819 52.8776 50.615 52.6293 50.4047 52.4205C50.1945 52.2118 49.945 52.0466 49.6707 51.9347C49.3964 51.8228 49.1026 51.7662 48.8063 51.7683H25.3748C24.5924 51.7662 23.8174 51.9193 23.0945 52.2188C22.3717 52.5182 21.7154 52.958 21.1637 53.5127L10.5539 64.1219C10.4569 64.219 10.3416 64.2959 10.2147 64.3483C10.0879 64.4007 9.95194 64.4275 9.81469 64.4273V64.4273Z" fill="#232121"/>
<path d="M21.9681 75.3145C21.758 75.3148 21.5527 75.2519 21.379 75.1338C21.2053 75.0157 21.0712 74.8479 20.9943 74.6524C20.9174 74.457 20.9012 74.2428 20.9478 74.038C20.9945 73.8332 21.1018 73.6472 21.2558 73.5043L26.6979 68.4406C26.8912 68.2603 27.1458 68.1602 27.4101 68.1605H47.8547C48.3265 68.1601 48.7929 68.0605 49.2238 67.8683C49.6547 67.6761 50.0404 67.3956 50.3559 67.0449L71.485 43.5574C71.982 43.0045 72.2469 42.2814 72.2245 41.5384C72.2022 40.7953 71.8943 40.0894 71.365 39.5675C70.8356 39.0455 70.1255 38.7477 69.3822 38.7358C68.6389 38.7239 67.9196 38.999 67.3738 39.5038L53.0613 52.7559C52.9605 52.8491 52.8424 52.9216 52.7136 52.9692C52.5849 53.0168 52.448 53.0386 52.3108 53.0333C52.1736 53.028 52.0388 52.9957 51.9141 52.9383C51.7894 52.8809 51.6772 52.7996 51.584 52.6988C51.4907 52.5981 51.4182 52.4799 51.3706 52.3512C51.323 52.2224 51.3013 52.0855 51.3066 51.9483C51.3119 51.8112 51.3441 51.6764 51.4015 51.5517C51.4589 51.427 51.5403 51.3148 51.641 51.2215L65.9531 37.9692C66.8937 37.099 68.1334 36.6247 69.4146 36.645C70.6958 36.6653 71.9199 37.1786 72.8324 38.0782C73.7449 38.9777 74.2756 40.1944 74.3141 41.4751C74.3527 42.7559 73.8962 44.0023 73.0395 44.9551L51.9105 68.4442C51.3987 69.0125 50.7732 69.467 50.0746 69.7783C49.3759 70.0896 48.6197 70.2507 47.8549 70.2512H27.8214L22.6806 75.0349C22.4874 75.2154 22.2325 75.3154 21.9681 75.3145V75.3145Z" fill="#232121"/>
<path d="M40.0003 80.0006C32.089 80.0006 24.3553 77.6546 17.7773 73.2593C11.1993 68.864 6.07238 62.6168 3.04486 55.3077C0.0173316 47.9986 -0.774807 39.9559 0.768612 32.1966C2.31203 24.4373 6.12169 17.31 11.7158 11.7158C17.31 6.12169 24.4373 2.31203 32.1966 0.768612C39.9559 -0.774807 47.9986 0.0173316 55.3077 3.04486C62.6168 6.07238 68.864 11.1993 73.2593 17.7773C77.6546 24.3553 80.0006 32.089 80.0006 40.0003C79.9886 50.6054 75.7705 60.7727 68.2716 68.2716C60.7727 75.7705 50.6054 79.9886 40.0003 80.0006V80.0006ZM40.0003 2.09125C32.5025 2.09119 25.1731 4.31449 18.9388 8.48C12.7046 12.6455 7.84564 18.5661 4.97633 25.4932C2.10702 32.4202 1.35626 40.0426 2.81899 47.3963C4.28172 54.75 7.89225 61.5049 13.194 66.8066C18.4957 72.1084 25.2506 75.7189 32.6043 77.1816C39.958 78.6443 47.5804 77.8936 54.5074 75.0243C61.4344 72.155 67.3551 67.296 71.5206 61.0617C75.6861 54.8275 77.9094 47.4981 77.9093 40.0003C77.898 29.9497 73.9004 20.3139 66.7936 13.207C59.6867 6.10015 50.0509 2.10255 40.0003 2.09125V2.09125Z" fill="#232121"/>
</g>
<defs>
<clipPath id="clip0_340_744">
<rect width="80.0006" height="80" fill="white"/>
</clipPath>
</defs>
</svg>
