<svg width="80" height="80" viewBox="0 0 80 80" fill="none" xmlns="http://www.w3.org/2000/svg">
<g clip-path="url(#clip0_339_713)">
<path d="M40 80C32.0888 80 24.3552 77.654 17.7772 73.2588C11.1992 68.8635 6.07234 62.6164 3.04484 55.3073C0.0173314 47.9983 -0.774802 39.9556 0.768607 32.1964C2.31202 24.4371 6.12165 17.3098 11.7157 11.7157C17.3098 6.12162 24.4372 2.31198 32.1964 0.768576C39.9556 -0.774833 47.9983 0.0173009 55.3074 3.04481C62.6164 6.07231 68.8635 11.1992 73.2588 17.7772C77.6541 24.3551 80 32.0887 80 40C79.9882 50.605 75.7702 60.7724 68.2713 68.2713C60.7724 75.7702 50.6051 79.9882 40 80V80ZM40 2.12032C32.5081 2.12017 25.1844 4.34164 18.955 8.50382C12.7256 12.666 7.87036 18.5819 5.00321 25.5035C2.13607 32.4251 1.38582 40.0415 2.84733 47.3895C4.30883 54.7374 7.91646 61.487 13.214 66.7847C18.5115 72.0823 25.261 75.6901 32.609 77.1517C39.957 78.6134 47.5733 77.8633 54.495 74.9963C61.4166 72.1293 67.3327 67.2742 71.495 61.0449C75.6573 54.8156 77.8789 47.4919 77.8789 40C77.8676 29.9573 73.8732 20.3291 66.772 13.2277C59.6708 6.12638 50.0427 2.13179 40 2.12032V2.12032Z" fill="#232121"/>
<path d="M65.1357 70.0927C44.6973 56.1054 22.8013 48.7118 1.8139 48.7118V46.5916C23.2303 46.5916 45.5405 54.1127 66.3333 68.3435L65.1357 70.0927Z" fill="#232121"/>
<path d="M55.7824 76.1918C40.3532 65.2599 22.3342 58.9111 5.04553 58.3143L5.11842 56.1957C22.817 56.8061 41.2452 63.2937 57.0082 74.4623L55.7824 76.1918Z" fill="#232121"/>
<path d="M42.9092 79.6936C33.3874 73.7914 22.8531 69.707 11.8412 67.6477L12.209 65.5588C23.4788 67.6637 34.2602 71.8414 44.0058 77.8797L42.9092 79.6936Z" fill="#232121"/>
<path d="M34.7735 54.1764L33.7712 52.308C48.7615 44.2636 64.0379 39.6766 79.1784 38.6736L79.3192 40.7889C64.4822 41.772 49.4954 46.276 34.7735 54.1764Z" fill="#232121"/>
<path d="M46.7911 59.0622L45.89 57.1423C55.9046 52.3897 66.668 49.4111 77.7011 48.3391L77.8889 50.4511C67.1028 51.5006 56.5808 54.4142 46.7911 59.0622V59.0622Z" fill="#232121"/>
<path d="M57.5764 64.7667L56.7615 62.8087C62.3109 60.4815 68.0871 58.7372 73.997 57.604L74.3896 59.6879C68.6242 60.7932 62.9895 62.4953 57.5764 64.7667V64.7667Z" fill="#232121"/>
<path d="M41.4962 35.388C39.547 35.388 37.6415 34.81 36.0208 33.727C34.4001 32.6441 33.1368 31.1049 32.3909 29.304C31.645 27.5031 31.4498 25.5215 31.8301 23.6097C32.2103 21.6979 33.149 19.9418 34.5273 18.5635C35.9056 17.1852 37.6617 16.2465 39.5735 15.8663C41.4853 15.486 43.4669 15.6812 45.2678 16.4271C47.0687 17.173 48.6079 18.4362 49.6908 20.057C50.7738 21.6777 51.3518 23.5832 51.3518 25.5324C51.3489 28.1454 50.3096 30.6505 48.4619 32.4981C46.6143 34.3458 44.1092 35.3851 41.4962 35.388V35.388ZM41.4962 17.7971C39.9664 17.797 38.4708 18.2506 37.1987 19.1005C35.9266 19.9503 34.9351 21.1584 34.3495 22.5717C33.7639 23.9851 33.6106 25.5404 33.909 27.0409C34.2073 28.5414 34.9439 29.9198 36.0256 31.0017C37.1073 32.0836 38.4855 32.8204 39.986 33.119C41.4865 33.4176 43.0418 33.2646 44.4553 32.6793C45.8688 32.0939 47.0769 31.1026 47.927 29.8307C48.7771 28.5587 49.231 27.0632 49.2311 25.5333C49.229 23.4825 48.4134 21.5162 46.9633 20.0659C45.5133 18.6156 43.5471 17.7996 41.4962 17.7971V17.7971Z" fill="#232121"/>
<path d="M42.5564 7.75555H40.4361V13.0703H42.5564V7.75555Z" fill="#232121"/>
<path d="M42.5564 38.3323H40.4361V43.6471H42.5564V38.3323Z" fill="#232121"/>
<path d="M49.9873 34.944L48.2994 36.2278L51.5163 40.4576L53.2042 39.1738L49.9873 34.944Z" fill="#232121"/>
<path d="M31.4753 10.6071L29.7875 11.8911L33.0052 16.1209L34.693 14.8369L31.4753 10.6071Z" fill="#232121"/>
<path d="M33.008 34.9436L29.7906 39.174L31.4786 40.4578L34.6961 36.2274L33.008 34.9436Z" fill="#232121"/>
<path d="M51.5162 10.6073L48.2993 14.837L49.9872 16.1208L53.2042 11.891L51.5162 10.6073Z" fill="#232121"/>
<path d="M29.4174 28.9534L24.3799 30.6478L25.0557 32.657L30.0933 30.9626L29.4174 28.9534Z" fill="#232121"/>
<path d="M58.3975 19.2008L53.3605 20.895L54.0364 22.9043L59.0733 21.2101L58.3975 19.2008Z" fill="#232121"/>
<path d="M25.0568 19.2002L24.3806 21.2093L29.4179 22.9047L30.0941 20.8956L25.0568 19.2002Z" fill="#232121"/>
<path d="M54.0367 28.9535L53.3604 30.9626L58.3969 32.658L59.0733 30.6489L54.0367 28.9535Z" fill="#232121"/>
</g>
<defs>
<clipPath id="clip0_339_713">
<rect width="79.9991" height="80" fill="white"/>
</clipPath>
</defs>
</svg>
